<svg xmlns:svg="http://www.w3.org/2000/svg" xmlns="http://www.w3.org/2000/svg" viewBox="0 0 500 115" height="115px" width="500px" version="1.1">
  <g>
    <g style="font-style:normal;font-weight:300;font-size:72px;line-height:1;font-family:'Montserrat Light Alt1';font-variant-ligatures:none;text-align:center;text-anchor:middle" transform="translate(0 0)">
      <path style="font-style:normal;font-weight:300;font-size:72px;line-height:1;font-family:'Montserrat Light Alt1';font-variant-ligatures:none;text-align:center;text-anchor:middle" d="m 403.8065,-2.16 c 2.88,1.656 6.12,2.448 9.792,2.448 3.024,0 5.76,-0.576 8.208,-1.728 2.448,-1.152 4.464,-2.88 6.048,-5.184 l -2.664,-1.944 c -1.368,1.872 -3.024,3.312 -5.04,4.248 -2.016,0.936 -4.176,1.368 -6.552,1.368 -2.952,0 -5.616,-0.648 -7.92,-1.944 -2.304,-1.296 -4.176,-3.168 -5.472,-5.616 -1.296,-2.376 -1.944,-5.112 -1.944,-8.28 0,-3.096 0.648,-5.832 1.944,-8.28 1.296,-2.376 3.168,-4.248 5.472,-5.544 2.304,-1.296 4.968,-2.016 7.92,-2.016 2.376,0 4.536,0.504 6.552,1.44 2.016,0.936 3.672,2.304 5.04,4.176 l 2.664,-1.944 c -1.584,-2.232 -3.6,-3.96 -6.048,-5.112 -2.448,-1.152 -5.184,-1.8 -8.208,-1.8 -3.672,0 -6.912,0.864 -9.792,2.448 -2.88,1.584 -5.184,3.888 -6.768,6.768 -1.656,2.88 -2.448,6.192 -2.448,9.864 0,3.672 0.792,6.984 2.448,9.864 1.584,2.88 3.888,5.184 6.768,6.768 z" stroke-width="0" stroke-linejoin="miter" stroke-miterlimit="2" fill="#005180" stroke="#005180" transform="translate(0 10) translate(10 26) scale(2) translate(-394 37)"></path>
      <path style="font-style:normal;font-weight:300;font-size:72px;line-height:1;font-family:'Montserrat Light Alt1';font-variant-ligatures:none;text-align:center;text-anchor:middle" d="m 442.96888,-2.16 c 2.88,1.656 6.048,2.448 9.64799,2.448 3.52801,0 6.69601,-0.792 9.57601,-2.448 2.87999,-1.584 5.11199,-3.888 6.76799,-6.768 1.584,-2.88 2.44801,-6.192 2.44801,-9.864 0,-3.6 -0.86401,-6.912 -2.44801,-9.792 -1.656,-2.88 -3.888,-5.184 -6.76799,-6.84 -2.88,-1.584 -6.048,-2.448 -9.57601,-2.448 -3.59999,0 -6.76799,0.864 -9.64799,2.448 -2.88,1.656 -5.11201,3.96 -6.69601,6.84 -1.656,2.88 -2.44799,6.192 -2.44799,9.792 0,3.672 0.79199,6.984 2.44799,9.864 1.584,2.88 3.81601,5.184 6.69601,6.768 z m 17.35199,-2.808 c -2.30399,1.368 -4.824,2.016 -7.704,2.016 -2.88,0 -5.47199,-0.648 -7.776,-2.016 -2.304,-1.296 -4.104,-3.168 -5.4,-5.616 -1.29599,-2.376 -1.944,-5.112 -1.944,-8.208 0,-3.024 0.64801,-5.76 1.944,-8.208 1.296,-2.376 3.096,-4.248 5.4,-5.616 2.30401,-1.296 4.896,-2.016 7.776,-2.016 2.88,0 5.40001,0.72 7.704,2.016 2.304,1.368 4.104,3.24 5.4,5.616 1.29601,2.448 2.016,5.184 2.016,8.208 0,3.096 -0.71999,5.832 -2.016,8.208 -1.296,2.448 -3.096,4.32 -5.4,5.616 z" stroke-width="0" stroke-linejoin="miter" stroke-miterlimit="2" fill="#6697b3" stroke="#6697b3" transform="translate(0 10) translate(100 26) scale(2) translate(-433 37)"></path>
      <path style="font-style:normal;font-weight:300;font-size:72px;line-height:1;font-family:'Montserrat Light Alt1';font-variant-ligatures:none;text-align:center;text-anchor:middle" d="m 515.915,-53.424 h -3.6 v 24.552 c -1.584,-2.808 -3.672,-5.04 -6.336,-6.624 -2.664,-1.584 -5.688,-2.376 -9,-2.376 -3.528,0 -6.696,0.864 -9.504,2.448 -2.88,1.584 -5.112,3.888 -6.696,6.768 -1.584,2.88 -2.376,6.192 -2.376,9.864 0,3.744 0.792,6.984 2.376,9.864 1.584,2.88 3.816,5.184 6.696,6.768 2.808,1.656 5.976,2.448 9.504,2.448 3.384,0 6.408,-0.792 9.144,-2.376 2.664,-1.584 4.752,-3.816 6.264,-6.768 V 0 h 3.528 z m -11.016,48.456 c -2.304,1.368 -4.824,2.016 -7.704,2.016 -2.88,0 -5.472,-0.648 -7.776,-2.016 -2.304,-1.296 -4.104,-3.168 -5.4,-5.616 -1.296,-2.376 -1.944,-5.112 -1.944,-8.208 0,-3.024 0.648,-5.76 1.944,-8.208 1.296,-2.376 3.096,-4.248 5.4,-5.616 2.304,-1.296 4.896,-2.016 7.776,-2.016 2.88,0 5.4,0.72 7.704,2.016 2.304,1.368 4.104,3.24 5.4,5.616 1.296,2.448 2.016,5.184 2.016,8.208 0,3.096 -0.72,5.832 -2.016,8.208 -1.296,2.448 -3.096,4.32 -5.4,5.616 z" stroke-width="0" stroke-linejoin="miter" stroke-miterlimit="2" fill="#ccdce6" stroke="#ccdce6" transform="translate(0 10) translate(200 -5) scale(2) translate(-478 53)"></path>
      <path style="font-style:normal;font-weight:300;font-size:72px;line-height:1;font-family:'Montserrat Light Alt1';font-variant-ligatures:none;text-align:center;text-anchor:middle" d="M 531.16325,-37.584 V 0 h 3.6 v -37.584 z m -0.288,-9.936 c 0.576,0.576 1.224,0.792 2.088,0.792 0.792,0 1.512,-0.288 2.088,-0.864 0.576,-0.576 0.864,-1.224 0.864,-2.088 0,-0.792 -0.288,-1.44 -0.864,-2.016 -0.576,-0.576 -1.296,-0.864 -2.088,-0.864 -0.864,0 -1.512,0.288 -2.088,0.864 -0.576,0.576 -0.864,1.296 -0.864,2.088 0,0.864 0.288,1.512 0.864,2.088 z" stroke-width="0" stroke-linejoin="miter" stroke-miterlimit="2" fill="#f6bfbf" stroke="#f6bfbf" transform="translate(0 10) translate(300 -4) scale(2) translate(-530 52)"></path>
      <path style="font-style:normal;font-weight:300;font-size:72px;line-height:1;font-family:'Montserrat Light Alt1';font-variant-ligatures:none;text-align:center;text-anchor:middle" d="m 573.407,-34.272 c -2.52,-2.376 -6.12,-3.6 -10.728,-3.6 -2.88,0 -5.688,0.504 -8.28,1.44 -2.664,0.936 -4.896,2.232 -6.768,3.888 l 1.8,2.592 c 1.584,-1.44 3.456,-2.592 5.76,-3.456 2.304,-0.864 4.68,-1.296 7.2,-1.296 3.6,0 6.408,0.936 8.28,2.736 1.872,1.872 2.88,4.536 2.88,7.992 v 3.024 h -12.888 c -4.896,0 -8.496,1.008 -10.728,2.952 -2.232,1.944 -3.312,4.464 -3.312,7.56 0,3.24 1.152,5.832 3.6,7.776 2.448,2.016 5.76,2.952 9.936,2.952 3.168,0 5.976,-0.576 8.28,-1.8 2.304,-1.224 4.032,-2.952 5.256,-5.184 V 0 h 3.456 v -23.832 c 0,-4.608 -1.296,-8.064 -3.744,-10.44 z m -4.824,29.448 c -2.16,1.44 -4.824,2.16 -7.92,2.16 -3.312,0 -5.904,-0.648 -7.704,-2.088 -1.872,-1.44 -2.736,-3.384 -2.736,-5.832 0,-2.304 0.792,-4.176 2.448,-5.544 1.656,-1.296 4.32,-2.016 8.064,-2.016 h 12.816 v 7.056 c -1.152,2.736 -2.808,4.824 -4.968,6.264 z" stroke-width="0" stroke-linejoin="miter" stroke-miterlimit="2" fill="#e43e3e" stroke="#e43e3e" transform="translate(0 10) translate(336 26) scale(2) translate(-546 37)"></path>
      <path style="font-style:normal;font-weight:300;font-size:72px;line-height:1;font-family:'Montserrat Light Alt1';font-variant-ligatures:none;text-align:center;text-anchor:middle" d="m 621.57388,-33.768 c -2.736,-2.736 -6.48,-4.104 -11.16001,-4.104 -3.528,0 -6.55199,0.792 -9.144,2.232 -2.592,1.512 -4.46399,3.6 -5.76,6.192 v -8.136 h -3.456 V 0 h 3.6 v -20.016 c 0,-4.464 1.22401,-7.992 3.816,-10.656 2.52,-2.592 5.976,-3.96 10.44001,-3.96 3.81599,0 6.76799,1.152 8.928,3.312 2.16,2.232 3.23999,5.472 3.23999,9.648 V 0 h 3.6 v -21.96 c 0,-5.112 -1.36799,-9.072 -4.10399,-11.808 z" stroke-width="0" stroke-linejoin="miter" stroke-miterlimit="2" fill="#d1acc1" stroke="#d1acc1" transform="translate(0 10) translate(430 26) scale(2) translate(-592 37)"></path>
    </g>
  </g>
</svg>
